<svg xmlns="http://www.w3.org/2000/svg" viewBox="0 0 600 800" role="img" aria-labelledby="title desc">
  <title id="title">Приложение 2. Блок-схема расчета укрывистости</title>
  <desc id="desc">Блок-схема инструментально-математического метода расчета укрывистости.</desc>
  <rect width="600" height="800" fill="#fffdf8"/>
  <g fill="none" stroke="#444" stroke-width="2.5">
    <rect x="180" y="20" width="180" height="48"/>
    <rect x="140" y="90" width="260" height="62"/>
    <rect x="90" y="90" width="40" height="62"/>
    <rect x="140" y="170" width="260" height="50"/>
    <rect x="90" y="170" width="40" height="50"/>
    <rect x="140" y="238" width="260" height="50"/>
    <rect x="90" y="238" width="40" height="50"/>
    <rect x="140" y="306" width="260" height="62"/>
    <rect x="90" y="306" width="40" height="62"/>
    <rect x="140" y="386" width="260" height="62"/>
    <rect x="90" y="386" width="40" height="62"/>
    <rect x="140" y="466" width="260" height="54"/>
    <rect x="90" y="466" width="40" height="54"/>
    <rect x="180" y="536" width="180" height="44"/>
    <line x1="270" y1="68" x2="270" y2="90"/>
    <line x1="270" y1="152" x2="270" y2="170"/>
    <line x1="270" y1="220" x2="270" y2="238"/>
    <line x1="270" y1="288" x2="270" y2="306"/>
    <line x1="270" y1="368" x2="270" y2="386"/>
    <line x1="270" y1="448" x2="270" y2="466"/>
    <line x1="270" y1="520" x2="270" y2="536"/>
    <line x1="90" y1="493" x2="40" y2="493"/>
    <line x1="40" y1="493" x2="40" y2="195"/>
    <line x1="40" y1="195" x2="90" y2="195"/>
    <polygon points="265,84 270,90 275,84" fill="#444"/>
    <polygon points="265,164 270,170 275,164" fill="#444"/>
    <polygon points="265,232 270,238 275,232" fill="#444"/>
    <polygon points="265,300 270,306 275,300" fill="#444"/>
    <polygon points="265,380 270,386 275,380" fill="#444"/>
    <polygon points="265,460 270,466 275,460" fill="#444"/>
    <polygon points="265,530 270,536 275,530" fill="#444"/>
    <polygon points="84,190 90,195 84,200" fill="#444"/>
  </g>
  <g font-family="Arial, Helvetica, sans-serif" fill="#111">
    <text x="270" y="44" font-size="13" font-weight="600" text-anchor="middle" dominant-baseline="middle">НАЧАЛО</text>
    <text x="110" y="121" font-size="13" font-weight="600" text-anchor="middle" dominant-baseline="middle">1</text>
    <text x="110" y="195" font-size="13" font-weight="600" text-anchor="middle" dominant-baseline="middle">2</text>
    <text x="110" y="263" font-size="13" font-weight="600" text-anchor="middle" dominant-baseline="middle">3</text>
    <text x="110" y="337" font-size="13" font-weight="600" text-anchor="middle" dominant-baseline="middle">4</text>
    <text x="110" y="417" font-size="13" font-weight="600" text-anchor="middle" dominant-baseline="middle">5</text>
    <text x="110" y="493" font-size="13" font-weight="600" text-anchor="middle" dominant-baseline="middle">6</text>
    <text x="270" y="108" font-size="10.5" font-weight="600" text-anchor="middle">
      <tspan x="270" dy="0">ВВОД ИСХОДНЫХ ДАННЫХ</tspan>
      <tspan x="270" dy="13">(R₀) j, (R∞) j,</tspan>
      <tspan x="270" dy="13">H, Rg, C (равно 0,98)</tspan>
    </text>
    <text x="270" y="195" font-size="10.5" font-weight="600" text-anchor="middle" dominant-baseline="middle">РАСЧЕТ a ПО ФОРМУЛЕ (11)</text>
    <text x="270" y="263" font-size="10.5" font-weight="600" text-anchor="middle" dominant-baseline="middle">РАСЧЕТ Rок ПО ФОРМУЛЕ (10)</text>
    <text x="270" y="330" font-size="10.5" font-weight="600" text-anchor="middle">
      <tspan x="270" dy="0">РАСЧЕТ ТОЛЩИНЫ КРОЮЩЕГО СЛОЯ</tspan>
      <tspan x="270" dy="13">Hк ПО ФОРМУЛЕ (9)</tspan>
    </text>
    <text x="270" y="410" font-size="10.5" font-weight="600" text-anchor="middle">
      <tspan x="270" dy="0">РАСЧЕТ ВЕЛИЧИНЫ УКРЫВИСТОСТИ</tspan>
      <tspan x="270" dy="13">ПО ФОРМУЛЕ (8)</tspan>
    </text>
    <text x="270" y="493" font-size="10.5" font-weight="600" text-anchor="middle" dominant-baseline="middle">ПРОВЕРКА НА КОНЕЦ ЦИКЛА</text>
    <text x="270" y="558" font-size="13" font-weight="600" text-anchor="middle" dominant-baseline="middle">ОСТАНОВКА</text>
    <text x="58" y="486" font-size="13">Нет</text>
    <text x="282" y="532" font-size="13">Да</text>
  </g>
</svg>
