<svg xmlns="http://www.w3.org/2000/svg" viewBox="0 0 230 320" role="img" aria-labelledby="title desc">
  <title id="title">Чертеж 1. Шахматная доска</title>
  <desc id="desc">Шахматная доска для визуального метода определения укрывистости.</desc>
  <rect width="230" height="320" fill="#fffdf8"/>
  <g fill="none" stroke="#444" stroke-width="2">
    <rect x="50" y="40" width="120" height="160" fill="#fff"/>
    <rect x="50" y="40" width="40" height="40" fill="#111" stroke="#444"/>
    <rect x="130" y="40" width="40" height="40" fill="#111" stroke="#444"/>
    <rect x="90" y="80" width="40" height="40" fill="#111" stroke="#444"/>
    <rect x="50" y="120" width="40" height="40" fill="#111" stroke="#444"/>
    <rect x="130" y="120" width="40" height="40" fill="#111" stroke="#444"/>
    <rect x="90" y="160" width="40" height="40" fill="#111" stroke="#444"/>
    <line x1="50" y1="40" x2="50" y2="200"/>
    <line x1="90" y1="20" x2="90" y2="200"/>
    <line x1="130" y1="20" x2="130" y2="200"/>
    <line x1="170" y1="40" x2="170" y2="200"/>
    <line x1="50" y1="40" x2="170" y2="40"/>
    <line x1="90" y1="30" x2="130" y2="30"/>
    <line x1="50" y1="80" x2="170" y2="80"/>
    <line x1="50" y1="120" x2="170" y2="120"/>
    <line x1="50" y1="160" x2="170" y2="160"/>
    <line x1="50" y1="200" x2="170" y2="200"/>
    <line x1="180" y1="40" x2="180" y2="200"/>
    <line x1="170" y1="40" x2="190" y2="40"/>
    <line x1="170" y1="200" x2="190" y2="200"/>
    <line x1="50" y1="210" x2="170" y2="210"/>
    <line x1="50" y1="220" x2="50" y2="200"/>
    <line x1="170" y1="220" x2="170" y2="200"/>
  </g>
  <g font-family="Arial, Helvetica, sans-serif" font-size="14" fill="#111">
    <text x="102" y="24">30</text>
    <text x="102" y="236">90</text>
    <text x="194" y="128" transform="rotate(-90 194 128)">120</text>
    <text x="89" y="258">Черт. 1</text>
  </g>
</svg>
